<?xml version="1.0" standalone="no"?>
<!DOCTYPE svg PUBLIC "-//W3C//DTD SVG 20010904//EN"
 "http://www.w3.org/TR/2001/REC-SVG-20010904/DTD/svg10.dtd">
<svg version="1.0" xmlns="http://www.w3.org/2000/svg"
 width="50.000000pt" height="50.000000pt" viewBox="0 0 50.000000 50.000000"
 preserveAspectRatio="xMidYMid meet">

<g transform="translate(0.000000,50.000000) scale(0.100000,-0.100000)"
fill="#000000" stroke="none">
<path d="M0 250 l0 -250 250 0 250 0 0 250 0 250 -250 0 -249 0 -1 -250z m275
204 c68 -22 205 -86 205 -96 0 -4 -19 1 -42 11 -148 66 -191 81 -237 81 -52 0
-111 -16 -123 -34 -5 -8 -8 -7 -8 1 0 15 28 30 77 42 57 13 73 13 128 -5z
m-215 -38 c0 -2 -9 -6 -20 -9 -11 -3 -18 -1 -14 4 5 9 34 13 34 5z m133 -28
c-3 -15 -9 -25 -14 -22 -13 8 -11 42 4 47 16 6 16 6 10 -25z m-159 -9 c11 17
36 13 36 -6 0 -16 -2 -16 -10 -3 -9 13 -12 12 -21 -4 -9 -15 -13 -16 -20 -5
-5 8 -9 19 -9 24 0 6 4 4 9 -4 6 -9 11 -10 15 -2z m-4 -59 c0 -5 -5 -10 -11
-10 -5 0 -7 5 -4 10 3 6 8 10 11 10 2 0 4 -4 4 -10z m27 -12 c-3 -8 -6 -5 -6
6 -1 11 2 17 5 13 3 -3 4 -12 1 -19z m406 -25 c27 -6 28 -8 25 -61 -2 -33 -8
-57 -15 -60 -8 -2 -13 6 -13 22 0 14 -4 26 -10 26 -5 0 -10 -13 -10 -29 0 -25
-6 -31 -52 -48 l-53 -20 -3 31 c-1 17 -5 37 -8 45 -9 26 -33 -9 -36 -52 -2
-33 -8 -44 -28 -54 -44 -20 -75 -20 -74 0 1 11 -7 20 -23 23 -17 5 -21 9 -12
14 7 5 18 6 26 3 8 -3 13 2 13 16 0 19 -3 20 -21 11 -11 -6 -28 -10 -37 -7
-12 2 -6 8 18 19 20 8 48 31 64 49 15 19 44 47 64 62 34 27 41 28 97 22 33 -4
73 -9 88 -12z m-416 -55 c-3 -7 -5 -2 -5 12 0 14 2 19 5 13 2 -7 2 -19 0 -25z
m369 -113 c-11 -8 -25 -15 -30 -15 -6 1 0 7 14 15 32 19 40 18 16 0z m-326
-49 c0 -2 -7 -7 -16 -10 -8 -3 -12 -2 -9 4 6 10 25 14 25 6z m207 -12 c-3 -3
-12 -4 -19 -1 -8 3 -5 6 6 6 11 1 17 -2 13 -5z m-232 -32 c-6 -7 -34 11 -29
19 3 5 11 3 19 -4 7 -6 12 -13 10 -15z m108 -9 c-13 -2 -35 -2 -50 0 -16 2 -5
4 22 4 28 0 40 -2 28 -4z"/>
<path d="M201 144 c0 -11 3 -14 6 -6 3 7 2 16 -1 19 -3 4 -6 -2 -5 -13z"/>
</g>
</svg>
