<?xml version="1.0"?>
<svg xmlns="http://www.w3.org/2000/svg" xmlns:xlink="http://www.w3.org/1999/xlink" xmlns:svgjs="http://svgjs.com/svgjs" version="1.1" width="30" height="30" x="0" y="0" viewBox="0 0 512 512" style="enable-background:new 0 0 512 512" xml:space="preserve" class=""><g><g xmlns="http://www.w3.org/2000/svg"><g><g><path d="m224 160c5.888 0 10.667-4.779 10.667-10.667v-21.333c0-64.704-52.629-117.333-117.333-117.333s-117.334 52.629-117.334 117.333v362.667c0 5.888 4.779 10.667 10.667 10.667s10.667-4.779 10.667-10.667v-228.395l184.085-102.272zm-202.667 77.867v-77.867h140.181z" fill="#d39e46" data-original="#000000" style="" class=""/><path d="m501.333 245.333c-5.888 0-10.667 4.779-10.667 10.667v-21.333c0-29.397-23.936-53.333-53.333-53.333h-170.666c-29.397 0-53.333 23.936-53.333 53.333v21.333c0-5.888-4.779-10.667-10.667-10.667s-10.667 4.779-10.667 10.667v85.333c0 5.888 4.779 10.667 10.667 10.667s10.667-4.779 10.667-10.667v128c0 5.888 4.779 10.667 10.667 10.667h10.667c0 11.755 9.579 21.333 21.333 21.333h21.333c11.755 0 21.333-9.579 21.333-21.333h106.667c0 11.755 9.579 21.333 21.333 21.333h21.333c11.755 0 21.333-9.579 21.333-21.333h10.667c5.888 0 10.667-4.779 10.667-10.667v-128c0 5.888 4.779 10.667 10.667 10.667s10.667-4.779 10.667-10.667v-85.333c-.001-5.888-4.78-10.667-10.668-10.667zm-213.333-21.333h128c5.888 0 10.667 4.779 10.667 10.667s-4.779 10.667-10.667 10.667h-128c-5.888 0-10.667-4.779-10.667-10.667s4.779-10.667 10.667-10.667zm160 181.333c0 5.888-4.779 10.667-10.667 10.667h-170.666c-5.888 0-10.667-4.779-10.667-10.667v-128c0-5.888 4.779-10.667 10.667-10.667h170.667c5.888 0 10.667 4.779 10.667 10.667v128z" fill="#d39e46" data-original="#000000" style="" class=""/><path d="m117.333 437.333h-42.666c-17.643 0-32 14.357-32 32v21.333c0 5.888 4.779 10.667 10.667 10.667s10.666-4.778 10.666-10.666v-10.667h64v10.667c0 5.888 4.779 10.667 10.667 10.667s10.667-4.779 10.667-10.667v-21.333c-.001-17.643-14.358-32.001-32.001-32.001z" fill="#d39e46" data-original="#000000" style="" class=""/></g></g></g><g xmlns="http://www.w3.org/2000/svg"/><g xmlns="http://www.w3.org/2000/svg"/><g xmlns="http://www.w3.org/2000/svg"/><g xmlns="http://www.w3.org/2000/svg"/><g xmlns="http://www.w3.org/2000/svg"/><g xmlns="http://www.w3.org/2000/svg"/><g xmlns="http://www.w3.org/2000/svg"/><g xmlns="http://www.w3.org/2000/svg"/><g xmlns="http://www.w3.org/2000/svg"/><g xmlns="http://www.w3.org/2000/svg"/><g xmlns="http://www.w3.org/2000/svg"/><g xmlns="http://www.w3.org/2000/svg"/><g xmlns="http://www.w3.org/2000/svg"/><g xmlns="http://www.w3.org/2000/svg"/><g xmlns="http://www.w3.org/2000/svg"/></g></svg>
