<?xml version="1.0"?>
<svg xmlns="http://www.w3.org/2000/svg" xmlns:xlink="http://www.w3.org/1999/xlink" xmlns:svgjs="http://svgjs.com/svgjs" version="1.1" width="150" height="150" x="0" y="0" viewBox="0 0 464 464" style="enable-background:new 0 0 512 512" xml:space="preserve" class=""><circle r="232" cx="232" cy="232" fill="#eec879" fill-opacity="0.4" shape="circle" transform="matrix(0.7,0,0,0.7,69.60000000000002,69.60000000000002)"/><g transform="matrix(0.22,0,0,0.22,201.08000000000015,180.96000000000018)"><path xmlns="http://www.w3.org/2000/svg" d="m272 428c0-19.882812-60.890625-36-136-36s-136 16.117188-136 36 60.890625 36 136 36 136-16.117188 136-36zm0 0" fill="#d39e46" data-original="#adabac" style="" class=""/><path xmlns="http://www.w3.org/2000/svg" d="m120 160h32v256c0 8.835938-7.164062 16-16 16s-16-7.164062-16-16zm0 0" fill="#494342" data-original="#494342" style="" class=""/><path xmlns="http://www.w3.org/2000/svg" d="m232 96c0 53.019531-42.980469 96-96 96s-96-42.980469-96-96 42.980469-96 96-96 96 42.980469 96 96zm0 0" fill="#c57a26" data-original="#ad2943" style="" class=""/><path xmlns="http://www.w3.org/2000/svg" d="m200 96c0 35.347656-28.652344 64-64 64s-64-28.652344-64-64 28.652344-64 64-64 64 28.652344 64 64zm0 0" fill="#e05004" data-original="#ee3446" style="" class=""/></g></svg>
